<svg xmlns="http://www.w3.org/2000/svg" width="100" height="29" fill="none"><path fill="#000" d="M69.934 10.935c-1.02-.815-2.499-1.274-4.436-1.274-1.938 0-3.825.408-5.814 1.989-.102.101-.102.204 0 .305l1.734 1.734c.05.051.153.102.255.051 1.53-.918 2.499-1.224 3.62-1.224 1.48 0 2.244.714 2.244 2.193v.612l-2.499.102c-2.141.102-3.722.46-4.793 1.173-1.071.714-1.58 1.836-1.58 3.366 0 1.428.407 2.55 1.172 3.366.765.764 1.887 1.172 3.264 1.172 1.122 0 2.04-.153 2.702-.459.612-.255 1.173-.713 1.734-1.377v1.377a.22.22 0 0 0 .204.204h3.468a.22.22 0 0 0 .204-.204v-9.28c.051-1.735-.459-3.01-1.479-3.825zm-3.162 9.945c-.56.51-1.275.765-2.193.765-1.274 0-1.886-.561-1.886-1.632 0-.765.255-1.326.816-1.734.56-.357 1.376-.561 2.55-.612l1.53-.051v1.173c0 .867-.256 1.58-.817 2.09zm32.231 3.06-4.794-6.885 4.539-6.834c.102-.153 0-.306-.153-.306h-4.029a.56.56 0 0 0-.51.306l-3.977 5.916V4.459a.22.22 0 0 0-.204-.204h-3.468a.22.22 0 0 0-.204.204V24.04a.22.22 0 0 0 .204.204h3.468a.22.22 0 0 0 .204-.204v-6.068l4.232 6.017a.628.628 0 0 0 .51.255h4.029c.153 0 .255-.153.153-.306zm-42.633.306H44.539a.914.914 0 0 1-.918-.918V4.46a.22.22 0 0 1 .204-.204h3.519a.22.22 0 0 1 .204.204v15.808h8.771a.22.22 0 0 1 .204.204v3.52c.102.152 0 .254-.153.254zM84.01 9.865c-2.957-.561-4.895.458-6.119 2.04V10.12a.22.22 0 0 0-.204-.204H74.22a.22.22 0 0 0-.204.204v13.92a.22.22 0 0 0 .204.204h3.467a.22.22 0 0 0 .204-.204v-7.598c0-.255.051-.561.102-.816.663-2.295 3.57-2.805 5.916-2.346.153.051.255-.05.255-.204V10.07c0-.102-.051-.204-.153-.204z"/><path fill="#00D6B9" d="m18.43 15.043.088-.087c.056-.057.117-.117.177-.174l.122-.117.36-.356.495-.481.42-.417.395-.39.412-.408.378-.373.53-.52c.099-.1.203-.196.307-.291.191-.174.39-.343.59-.508a13.271 13.271 0 0 1 1.414-.976c.283-.165.573-.321.868-.469a11.562 11.562 0 0 1 1.345-.55c.083-.027.165-.057.252-.083A20.808 20.808 0 0 0 22.648.947a1.904 1.904 0 0 0-1.48-.707H5.962a.286.286 0 0 0-.17.516 44.38 44.38 0 0 1 12.604 14.326l.035-.04z"/><path fill="#3370FF" d="M12.386 28.427c7.853 0 14.695-4.334 18.261-10.738.126-.226.247-.451.364-.681a8.405 8.405 0 0 1-.837 1.31 9.404 9.404 0 0 1-.581.677 7.485 7.485 0 0 1-.911.815 6.551 6.551 0 0 1-.412.295 8.333 8.333 0 0 1-.555.343 7.887 7.887 0 0 1-1.754.72 7.58 7.58 0 0 1-.932.2c-.226.035-.46.06-.69.078-.243.017-.49.022-.738.022a8.826 8.826 0 0 1-.824-.052 9.901 9.901 0 0 1-.612-.087 7.81 7.81 0 0 1-.533-.113c-.096-.022-.187-.048-.282-.074a56.83 56.83 0 0 1-.781-.217c-.13-.039-.26-.073-.386-.112a22.1 22.1 0 0 1-.578-.178c-.156-.048-.312-.1-.468-.152-.148-.048-.3-.096-.447-.148l-.304-.104-.368-.13-.26-.095a18.462 18.462 0 0 1-.517-.191c-.1-.04-.2-.074-.3-.113l-.398-.156-.421-.17-.274-.112-.338-.14-.26-.107-.27-.118-.234-.104-.212-.095-.217-.1-.221-.104-.282-.13-.295-.14c-.104-.051-.209-.099-.313-.151l-.264-.13A43.902 43.902 0 0 1 .495 8.665.287.287 0 0 0 0 8.86l.009 13.42v1.089c0 .633.312 1.223.837 1.575a20.685 20.685 0 0 0 11.54 3.484z"/><path fill="#133C9A" d="M35.463 9.511a12.003 12.003 0 0 0-8.88-.672c-.083.026-.166.052-.252.082a12.415 12.415 0 0 0-2.213 1.015c-.29.17-.569.352-.842.547a11.063 11.063 0 0 0-1.163.937c-.104.096-.203.191-.308.29l-.529.521-.377.374-.412.407-.395.39-.421.417-.49.486-.36.356-.122.117a6.7 6.7 0 0 1-.178.174l-.087.087-.134.125-.152.14a21.037 21.037 0 0 1-4.33 3.066l.282.13.222.105.217.1.212.095.234.104.27.117.26.109.338.139.273.112.421.17c.13.052.265.104.4.156.1.039.199.073.299.113.173.065.347.125.516.19l.26.096c.122.043.243.087.37.13l.303.104c.147.048.295.1.447.148.156.052.312.1.468.152.191.06.386.117.577.177a51.658 51.658 0 0 0 1.167.33c.096.026.187.048.282.074.178.043.356.078.534.113.204.034.408.065.612.086a8.286 8.286 0 0 0 2.252-.048c.312-.047.624-.116.932-.199a7.619 7.619 0 0 0 1.15-.416 7.835 7.835 0 0 0 .89-.473c.095-.057.181-.117.268-.174.139-.095.278-.19.412-.295.117-.087.23-.178.339-.273a8.34 8.34 0 0 0 1.15-1.22 9.294 9.294 0 0 0 .833-1.302l.203-.402 1.814-3.614.021-.044a11.865 11.865 0 0 1 2.417-3.449z"/></svg>